sfk_cyclingleg_states
version=1
nRows=8
nColumns=53
inDegrees=yes

# SIMM Motion File Header:
name sfk_cyclingleg_states
datacolumns 53
datarows 8
otherdata 1
range 0.23170269 0.23283024
endheader
time	/jointset/bb/crank_angle/value	/jointset/bb/crank_angle/speed	/jointset/spindle/pedal_angle_r/value	/jointset/spindle/pedal_angle_r/speed	/jointset/ground_pelvis/pelvis_tilt/value	/jointset/ground_pelvis/pelvis_tilt/speed	/jointset/ground_pelvis/pelvis_list/value	/jointset/ground_pelvis/pelvis_list/speed	/jointset/ground_pelvis/pelvis_rotation/value	/jointset/ground_pelvis/pelvis_rotation/speed	/jointset/ground_pelvis/pelvis_tx/value	/jointset/ground_pelvis/pelvis_tx/speed	/jointset/ground_pelvis/pelvis_ty/value	/jointset/ground_pelvis/pelvis_ty/speed	/jointset/ground_pelvis/pelvis_tz/value	/jointset/ground_pelvis/pelvis_tz/speed	/jointset/hip_r/hip_angle_r/value	/jointset/hip_r/hip_angle_r/speed	/jointset/hip_r/hip_adduction_r/value	/jointset/hip_r/hip_adduction_r/speed	/jointset/hip_r/hip_rotation_r/value	/jointset/hip_r/hip_rotation_r/speed	/jointset/knee_r/knee_angle_r/value	/jointset/knee_r/knee_angle_r/speed	/jointset/knee_r/tib_tx_r/value	/jointset/knee_r/tib_tx_r/speed	/jointset/knee_r/tib_ty_r/value	/jointset/knee_r/tib_ty_r/speed	/jointset/tib_pat_r/pat_angle_r/value	/jointset/tib_pat_r/pat_angle_r/speed	/jointset/tib_pat_r/pat_tx_r/value	/jointset/tib_pat_r/pat_tx_r/speed	/jointset/tib_pat_r/pat_ty_r/value	/jointset/tib_pat_r/pat_ty_r/speed	/jointset/ankle_r/ankle_angle_r/value	/jointset/ankle_r/ankle_angle_r/speed	/jointset/subtalar_r/subtalar_angle_r/value	/jointset/subtalar_r/subtalar_angle_r/speed	/jointset/mtp_r/mtp_angle_r/value	/jointset/mtp_r/mtp_angle_r/speed	/forceset/bifemlh_r/activation	/forceset/bifemlh_r/fiber_length	/forceset/bifemsh_r/activation	/forceset/bifemsh_r/fiber_length	/forceset/glut_max2_r/activation	/forceset/glut_max2_r/fiber_length	/forceset/vas_int_r/activation	/forceset/vas_int_r/fiber_length	/forceset/med_gas_r/activation	/forceset/med_gas_r/fiber_length	/forceset/tib_ant_r/activation	/forceset/tib_ant_r/fiber_length
      0.23170269	   -121.38429202	   -480.13863232	    138.87202207	    527.41468765	      0.00000000	      0.00000000	     -0.00000000	     -0.00000000	     -0.00000000	      0.00000000	      0.00000000	     -0.00000000	      0.00000000	      0.00000000	     -0.00000000	     -0.00000000	     53.86117079	   -202.82391079	      4.38410747	     -0.13995494	      0.90422731	     19.16989444	    -58.11172321	    231.05428367	      0.00467410	     -0.01831532	     -0.47539034	      0.06947648	     17.35469554	     -5.62228653	      0.04337011	      0.06760309	     -0.02299355	     -0.00852388	     22.15503453	     18.67485654	     -0.00000000	     -0.00000000	     -0.00000000	     -0.00000000	     -0.00438960	      0.13379525	     -0.00438960	      0.16719287	     -0.00438960	      0.14089801	     -0.00438960	      0.12824210	     -0.00438960	      0.14657540	     -0.00438960	      0.11650549
      0.23186325	   -121.46138168	   -480.13863232	    138.95669271	    527.29582769	      0.00000000	      0.00000000	     -0.00000000	     -0.00000000	     -0.00000000	      0.00000000	      0.00000000	     -0.00000000	      0.00000000	      0.00000000	     -0.00000000	     -0.00000000	     53.82861340	   -202.73136981	      4.38408487	     -0.14163807	      0.90730407	     19.15621194	    -58.07464597	    230.80287320	      0.00467116	     -0.01834817	     -0.47537919	      0.06937722	     17.35379186	     -5.63451897	      0.04338095	      0.06751223	     -0.02299492	     -0.00851578	     22.15803623	     18.71620415	     -0.00000000	     -0.00000000	     -0.00000000	     -0.00000000	     -0.00441028	      0.13378311	     -0.00441028	      0.16721389	     -0.00441028	      0.14087652	     -0.00441028	      0.12821517	     -0.00441028	      0.14658867	     -0.00441028	      0.11650298
      0.23202399	   -121.53855813	   -480.13863232	    139.04143950	    527.17630054	      0.00000000	      0.00000000	     -0.00000000	     -0.00000000	     -0.00000000	      0.00000000	      0.00000000	     -0.00000000	      0.00000000	      0.00000000	     -0.00000000	     -0.00000000	     53.79603428	   -202.63813337	      4.38406196	     -0.14331652	      0.91038209	     19.14243461	    -58.03756751	    230.55025983	      0.00466821	     -0.01838074	     -0.47536805	      0.06927762	     17.35288520	     -5.64671372	      0.04339180	      0.06742106	     -0.02299629	     -0.00850764	     22.16104794	     18.75739261	     -0.00000000	     -0.00000000	     -0.00000000	     -0.00000000	     -0.00443097	      0.13377095	     -0.00443097	      0.16723492	     -0.00443097	      0.14085500	     -0.00443097	      0.12818823	     -0.00443097	      0.14660193	     -0.00443097	      0.11650046
      0.23218488	   -121.61580784	   -480.13863232	    139.12624746	    527.05612293	      0.00000000	      0.00000000	     -0.00000000	     -0.00000000	     -0.00000000	      0.00000000	      0.00000000	     -0.00000000	      0.00000000	      0.00000000	     -0.00000000	     -0.00000000	     53.76343929	   -202.54421438	      4.38403877	     -0.14498995	      0.91346081	     19.12856419	    -58.00049458	    230.29648200	      0.00466525	     -0.01841300	     -0.47535691	      0.06917770	     17.35197572	     -5.65886798	      0.04340264	      0.06732957	     -0.02299766	     -0.00849947	     22.16406913	     18.79841284	     -0.00000000	     -0.00000000	     -0.00000000	     -0.00000000	     -0.00445169	      0.13375877	     -0.00445169	      0.16725595	     -0.00445169	      0.14083346	     -0.00445169	      0.12816128	     -0.00445169	      0.14661520	     -0.00445169	      0.11649793
      0.23234597	   -121.69315462	   -480.13863232	    139.21114258	    526.93525339	      0.00000000	      0.00000000	     -0.00000000	     -0.00000000	     -0.00000000	      0.00000000	      0.00000000	     -0.00000000	      0.00000000	      0.00000000	     -0.00000000	     -0.00000000	     53.73081853	   -202.44958029	      4.38401528	     -0.14665884	      0.91654116	     19.11459572	    -57.96341605	    230.04145539	      0.00466228	     -0.01844497	     -0.47534577	      0.06907743	     17.35106314	     -5.67098481	      0.04341348	      0.06723775	     -0.02299903	     -0.00849125	     22.16710071	     18.83927556	     -0.00000000	     -0.00000000	     -0.00000000	     -0.00000000	     -0.00447243	      0.13374657	     -0.00447243	      0.16727698	     -0.00447243	      0.14081189	     -0.00447243	      0.12813433	     -0.00447243	      0.14662846	     -0.00447243	      0.11649539
      0.23250720	   -121.77056758	   -480.13863232	    139.29609079	    526.81373587	      0.00000000	      0.00000000	     -0.00000000	     -0.00000000	     -0.00000000	      0.00000000	      0.00000000	     -0.00000000	      0.00000000	      0.00000000	     -0.00000000	     -0.00000000	     53.69818517	   -202.35426541	      4.38399150	     -0.14832246	      0.91962188	     19.10053408	    -57.92634700	    229.78527597	      0.00465930	     -0.01847664	     -0.47533464	      0.06897684	     17.35014783	     -5.68305870	      0.04342431	      0.06714563	     -0.02300039	     -0.00848300	     22.17014146	     18.87996253	     -0.00000000	     -0.00000000	     -0.00000000	     -0.00000000	     -0.00449318	      0.13373435	     -0.00449318	      0.16729801	     -0.00449318	      0.14079031	     -0.00449318	      0.12810737	     -0.00449318	      0.14664172	     -0.00449318	      0.11649284
      0.23266867	   -121.84809633	   -480.13863232	    139.38114637	    526.69148792	      0.00000000	      0.00000000	     -0.00000000	     -0.00000000	     -0.00000000	      0.00000000	      0.00000000	     -0.00000000	      0.00000000	      0.00000000	     -0.00000000	     -0.00000000	     53.66551845	   -202.25820491	      4.38396742	     -0.14998185	      0.92270493	     19.08636955	    -57.88926399	    229.52777321	      0.00465632	     -0.01850802	     -0.47532351	      0.06887588	     17.34922920	     -5.69509669	      0.04343515	      0.06705315	     -0.02300176	     -0.00847471	     22.17319331	     18.92049781	     -0.00000000	     -0.00000000	     -0.00000000	     -0.00000000	     -0.00451397	      0.13372210	     -0.00451397	      0.16731906	     -0.00451397	      0.14076869	     -0.00451397	      0.12808039	     -0.00451397	      0.14665499	     -0.00451397	      0.11649028
      0.23283024	   -121.92567224	   -480.13863232	    139.46623391	    526.56861333	      0.00000000	      0.00000000	     -0.00000000	     -0.00000000	     -0.00000000	      0.00000000	      0.00000000	     -0.00000000	      0.00000000	      0.00000000	     -0.00000000	     -0.00000000	     53.63284744	   -202.16148025	      4.38394305	     -0.15163547	      0.92578756	     19.07211397	    -57.85220010	    229.26916899	      0.00465332	     -0.01853908	     -0.47531239	      0.06877462	     17.34830808	     -5.70708742	      0.04344597	      0.06696039	     -0.02300313	     -0.00846637	     22.17625355	     18.96084361	     -0.00000000	     -0.00000000	     -0.00000000	     -0.00000000	     -0.00453478	      0.13370983	     -0.00453478	      0.16734010	     -0.00453478	      0.14074706	     -0.00453478	      0.12805341	     -0.00453478	      0.14666824	     -0.00453478	      0.11648772
